<?xml version="1.0" encoding="UTF-8" standalone="no"?>
<!-- Created with Inkscape (http://www.inkscape.org/) -->

<svg
   width="32"
   height="32"
   viewBox="0 0 8.4666665 8.4666669"
   version="1.1"
   id="svg5"
   xmlns="http://www.w3.org/2000/svg"
   xmlns:svg="http://www.w3.org/2000/svg">
  <defs
     id="defs2" />
  <g
     id="layer1">
    <g
       style="fill:none"
       id="g21"
       transform="scale(0.14111111)">
      <rect
         width="60"
         height="60"
         rx="30"
         fill="#181818"
         id="rect9"
         x="0"
         y="0" />
      <path
         d="m 39.7711,19.6568 2.1014,-5.6537 h -3.4521 l -1.3862,3.718 C 36.2748,17.3181 35.4768,16.9937 34.6531,16.753 L 35.6781,14 h -3.452 l -0.8374,2.246 c -0.1097,0 -0.2206,-0.0061 -0.3325,-0.0061 H 27.045 c -0.5328,-0.0676 -1.0575,-0.189 -1.5663,-0.3628 -0.177,-0.06 -0.3497,-0.1237 -0.5201,-0.1952 L 23.8193,18.7353 15,42.4003 h 6.643 L 20.3004,46 h 3.4521 l 1.3433,-3.5997 h 2.7431 L 26.4962,46 h 3.4521 l 1.3426,-3.602 c 7.1399,-0.1232 12.829,-6.0751 12.7072,-13.2943 -0.0608,-3.6038 -1.5903,-7.0222 -4.2272,-9.4475 z M 19.6686,39.1347 26.9855,19.5111 c 0.3287,0.031 0.6581,0.0448 0.9876,0.0448 0.3294,0 0.6753,-0.0159 1.004,-0.0479 h 1.2009 l -7.3162,19.6267 z m 6.643,0 7.2045,-19.3102 c 0.8311,0.2214 1.6295,0.553 2.3745,0.9865 l -6.8367,18.324 h -2.7423 z m 11.614,-2.8766 c -1.4533,1.4794 -3.3384,2.4478 -5.3771,2.7619 l 5.9608,-15.9853 c 3.2229,3.8952 2.9696,9.6342 -0.584,13.2234 z"
         fill="#b5ff00"
         id="path11" />
    </g>
  </g>
</svg>
